<svg version="1.1" id="Layer_1" xmlns="http://www.w3.org/2000/svg" xmlns:xlink="http://www.w3.org/1999/xlink" x="0px" y="0px"
	 width="100%" viewBox="0 0 592 423" enable-background="new 0 0 592 423" xml:space="preserve">
<path fill="#FFFFFF" opacity="1.000000" stroke="none" 
	d="
M0.999999,251.000000 
	C1.000000,167.685699 1.000000,84.371399 1.000000,1.028551 
	C198.269226,1.028551 395.538452,1.028551 592.903809,1.028551 
	C592.903809,141.903625 592.903809,282.807343 592.903809,423.855530 
	C395.666748,423.855530 198.333389,423.855530 1.000000,423.855530 
	C1.000000,411.926849 1.000000,399.929474 1.438794,387.486450 
	C10.899551,387.372711 19.921515,387.704590 29.324072,388.187195 
	C41.046497,388.803223 52.388329,389.268555 64.170189,389.836761 
	C81.274391,390.667328 97.938553,391.395020 114.893234,392.427185 
	C131.690002,393.713593 148.196259,394.695496 165.171631,395.755615 
	C168.483826,395.837250 171.326904,395.840668 174.580841,395.935669 
	C185.738922,396.698608 196.482010,397.446594 207.234314,398.023010 
	C222.454117,398.838898 237.679703,399.549622 252.904678,400.265686 
	C267.958710,400.973663 283.015015,401.632385 298.394165,402.552307 
	C303.172180,402.840179 307.626343,402.888489 312.535645,403.033508 
	C339.978088,401.240082 366.961975,399.298889 393.953857,397.476196 
	C415.166290,396.043762 436.393738,394.832245 457.604767,393.380219 
	C471.666473,392.417603 485.705139,391.121063 499.764618,390.122131 
	C519.629150,388.710815 539.496521,387.314758 559.378479,386.192902 
	C564.072021,385.928070 564.410095,383.640015 563.926086,379.979950 
	C563.186218,374.385223 562.583008,368.769318 562.060303,363.149536 
	C560.646423,347.948029 559.297668,332.740448 557.942993,317.533508 
	C557.689819,314.691498 556.604736,313.077606 553.372925,312.815430 
	C547.099060,312.306488 540.861084,311.354858 534.607910,310.589478 
	C502.653137,306.678101 470.699127,302.760162 438.742981,298.859833 
	C420.786194,296.668152 402.820465,294.547699 384.876282,292.257965 
	C383.306427,292.057648 380.843323,291.129364 380.527893,290.038269 
	C377.776001,280.519226 374.354858,271.011292 373.205841,261.255890 
	C371.655853,248.096130 371.830170,234.722931 371.466736,221.435791 
	C370.534882,187.366226 369.670441,153.294647 368.880188,119.221527 
	C368.675507,110.396210 368.742462,110.620621 360.935394,107.061371 
	C349.107849,101.669167 350.417297,105.442497 350.352631,91.441513 
	C350.344940,89.775391 350.351593,88.109192 350.351593,86.443031 
	C350.351593,70.811607 350.362335,70.785454 335.597473,64.726189 
	C332.443939,63.432022 331.011230,61.429379 331.072540,57.871517 
	C331.215851,49.555756 331.296906,41.215389 330.761383,32.926453 
	C330.609711,30.578573 328.785889,27.247986 326.802704,26.294462 
	C317.264252,21.708263 307.408752,17.781389 297.310638,13.468775 
	C297.031952,15.264327 296.833313,16.544149 296.286255,17.927147 
	C294.931854,21.998077 293.340057,25.920675 293.029999,29.942091 
	C292.113159,41.834263 291.556396,53.760193 291.125763,65.682564 
	C290.322937,87.908852 289.460785,110.137802 289.088837,132.373444 
	C288.746582,152.832291 288.906250,173.302460 289.108032,193.765045 
	C289.148834,197.900848 287.872833,199.579941 283.781921,200.394943 
	C270.811218,202.978989 257.925293,205.988602 244.630676,208.798691 
	C243.274094,208.964066 242.293457,209.164429 240.958771,209.156647 
	C239.741562,207.122879 238.481781,205.372284 238.118591,203.452087 
	C237.693527,201.204681 238.062805,198.809540 238.064346,196.478470 
	C238.069458,188.779251 238.049545,188.717728 230.819733,190.587860 
	C217.827042,193.948685 204.870117,197.448181 191.872269,200.788651 
	C160.380524,208.882126 128.876175,216.926620 97.372498,224.973633 
	C68.446144,232.362289 39.502708,239.684631 10.599955,247.164368 
	C7.290723,248.020752 4.194814,249.701477 0.999999,251.000000 
z"/>
<path fill="#A4BED7" opacity="1.000000" stroke="none" 
	d="
M174.169983,395.844116 
	C171.326904,395.840668 168.483826,395.837250 165.217163,395.334564 
	C164.793564,371.789398 164.793564,348.743469 164.793564,325.344208 
	C163.759033,325.298248 162.291779,325.065643 160.857254,325.195312 
	C147.150894,326.433563 133.457245,327.820312 119.742149,328.948120 
	C116.669220,329.200867 115.802528,330.507812 115.765549,333.329376 
	C115.645866,342.460571 115.337692,351.589081 115.152962,360.719666 
	C114.941193,371.186737 114.783760,381.654968 114.602722,392.122681 
	C97.938553,391.395020 81.274391,390.667328 64.113052,389.390259 
	C63.615879,384.407318 63.615879,379.973724 63.615879,375.239471 
	C55.251270,375.239471 47.151936,375.239441 39.052601,375.239471 
	C29.963274,375.239471 29.967926,375.239838 29.332623,384.066559 
	C29.237200,385.392334 29.074860,386.713287 28.943474,388.036438 
	C19.921515,387.704590 10.899551,387.372711 1.438794,387.020416 
	C1.000000,341.979095 1.000000,296.958221 0.999999,251.468658 
	C4.194814,249.701477 7.290723,248.020752 10.599955,247.164368 
	C39.502708,239.684631 68.446144,232.362289 97.372498,224.973633 
	C128.876175,216.926620 160.380524,208.882126 191.872269,200.788651 
	C204.870117,197.448181 217.827042,193.948685 230.819733,190.587860 
	C238.049545,188.717728 238.069458,188.779251 238.064346,196.478470 
	C238.062805,198.809540 237.693527,201.204681 238.118591,203.452087 
	C238.481781,205.372284 239.741562,207.122879 240.856888,209.588440 
	C241.138016,215.390488 241.167007,220.552597 240.912903,225.975540 
	C240.170425,227.284195 239.300461,228.339920 239.320419,229.378525 
	C239.425369,234.836777 239.629181,240.301392 240.089691,245.739151 
	C240.215714,247.227219 241.346222,248.630249 242.045197,250.525543 
	C242.079971,252.968521 241.929321,254.973663 242.124207,256.944672 
	C242.494156,260.686310 240.876297,262.323853 237.190643,262.868683 
	C217.686600,265.752106 198.224289,268.924377 178.700577,271.661865 
	C175.311020,272.137146 174.733688,273.362000 174.721222,276.333862 
	C174.569946,312.394745 174.310562,348.455139 174.093979,384.515747 
	C174.071304,388.291565 174.142395,392.067993 174.169983,395.844116 
M185.620132,250.840103 
	C185.988083,245.137680 186.735916,239.415604 186.442749,233.747375 
	C186.374008,232.418243 182.628098,230.123581 180.857559,230.363785 
	C179.092926,230.603180 176.683716,233.286591 176.331223,235.221649 
	C175.626312,239.091431 175.876755,243.203247 176.205383,247.176041 
	C176.614120,252.117035 180.543716,253.865875 185.620132,250.840103 
M167.020828,242.632812 
	C167.016113,241.303635 167.520889,239.631561 166.903732,238.714569 
	C165.490997,236.615524 163.757721,233.803513 161.714462,233.373749 
	C160.276520,233.071320 156.802139,236.020737 156.535385,237.852798 
	C155.880432,242.351120 156.088928,247.130325 156.931442,251.612076 
	C157.250656,253.310150 160.609314,255.918991 161.966629,255.587875 
	C163.938690,255.106750 165.955933,252.587662 166.829727,250.473114 
	C167.651520,248.484406 167.015564,245.893311 167.020828,242.632812 
M129.998276,304.036407 
	C129.999893,301.550507 129.942337,299.062836 130.017136,296.579132 
	C130.126282,292.955536 128.631958,291.016205 124.816521,290.876892 
	C120.985512,290.736969 119.357056,292.771729 119.099998,296.212250 
	C118.927597,298.519806 118.470871,301.065002 119.217293,303.111420 
	C120.006744,305.275787 121.718231,307.917816 123.665390,308.647430 
	C126.319756,309.642090 129.287933,308.555267 129.998276,304.036407 
M143.239029,289.050537 
	C141.309174,289.699432 138.937637,289.855225 137.544388,291.103210 
	C134.906601,293.465912 135.186386,303.552979 138.162170,305.310333 
	C140.030930,306.413910 143.827347,306.528656 145.435913,305.322571 
	C148.755676,302.833405 147.424164,292.177704 143.239029,289.050537 
M126.464104,241.223740 
	C121.374557,243.115448 118.834320,255.092361 122.711510,258.916779 
	C124.668472,260.847107 128.604233,260.386871 130.157730,258.046051 
	C132.504211,254.510361 130.655060,244.001083 126.464104,241.223740 
M139.303940,240.151016 
	C138.954239,244.516266 138.216782,248.905701 138.486877,253.232269 
	C138.569824,254.560883 141.406525,256.669556 142.988846,256.675537 
	C144.468094,256.681091 146.910202,254.579330 147.243912,253.039871 
	C147.963943,249.718216 148.046356,246.099884 147.570068,242.718353 
	C147.003250,238.693954 143.706711,237.584686 139.303940,240.151016 
M102.054146,260.923645 
	C103.772110,262.282898 105.490074,263.642181 107.208031,265.001434 
	C108.450150,263.261902 110.368904,261.665863 110.775383,259.749115 
	C111.381119,256.892792 111.524841,253.628830 110.703049,250.886566 
	C110.140259,249.008636 107.600899,247.723038 105.945160,246.172653 
	C104.642860,247.807343 102.615555,249.280106 102.205963,251.114136 
	C101.570618,253.958984 102.037766,257.050049 102.054146,260.923645 
M84.479126,251.992752 
	C83.966209,255.804794 83.038406,259.628021 83.140671,263.423492 
	C83.182701,264.983368 85.384705,267.655243 86.710411,267.722321 
	C88.476830,267.811707 91.119278,266.268372 91.976723,264.670441 
	C93.046890,262.676056 92.913132,259.910614 92.893318,257.481384 
	C92.846542,251.746826 90.972015,250.375763 84.479126,251.992752 
M101.324623,296.342010 
	C101.190262,299.970398 100.607216,303.663208 101.114845,307.199432 
	C101.360855,308.913147 103.465584,311.372375 105.058029,311.657867 
	C107.882431,312.164307 110.084641,310.388123 110.055748,306.982483 
	C110.034660,304.495850 110.129501,302.006287 110.042076,299.522614 
	C109.848442,294.021393 106.724213,292.569458 101.324623,296.342010 
M81.744675,299.637360 
	C81.774849,302.728333 81.439713,305.888977 82.009575,308.877014 
	C82.247589,310.125031 84.450485,311.890167 85.685982,311.832550 
	C87.264183,311.758942 89.697777,310.364044 90.104889,309.031952 
	C90.894524,306.448212 90.992882,303.418365 90.464981,300.754211 
	C90.144226,299.135437 88.324623,297.074982 86.789452,296.663452 
	C85.503487,296.318695 83.653641,298.077271 81.744675,299.637360 
M52.731842,272.243195 
	C55.707497,275.308807 58.514336,273.581848 59.211185,270.781555 
	C60.080135,267.289703 59.621635,263.340729 59.046169,259.698151 
	C58.886158,258.685272 56.152351,257.271973 54.840370,257.490387 
	C53.683147,257.683014 52.157116,259.831726 52.032234,261.227509 
	C51.727283,264.635895 52.139397,268.108398 52.731842,272.243195 
M64.115288,302.247009 
	C64.069099,304.895721 63.551613,307.655701 64.141342,310.154327 
	C64.538719,311.837952 66.499557,313.152588 67.760986,314.632294 
	C69.149315,313.236755 71.138428,312.065887 71.766586,310.386078 
	C72.475311,308.490845 72.294281,306.068451 71.867111,304.006470 
	C71.544838,302.450867 70.473434,300.226135 69.285904,299.890686 
	C67.918373,299.504364 66.056305,300.868713 64.115288,302.247009 
M66.038551,265.120575 
	C66.041611,268.019592 67.334183,270.591187 70.282997,269.794647 
	C71.900665,269.357727 73.135094,266.428711 73.930527,264.385223 
	C74.492935,262.940369 74.523857,260.871948 73.896835,259.487274 
	C73.130501,257.794922 71.427979,256.526489 70.130295,255.074722 
	C68.771606,256.465942 66.991760,257.652771 66.186226,259.312469 
	C65.530624,260.663269 66.041977,262.580444 66.038551,265.120575 
M39.143124,268.448853 
	C39.401997,270.229218 39.067558,272.581238 40.081757,273.633850 
	C41.158432,274.751312 43.943832,275.509399 45.224979,274.880402 
	C48.072609,273.482269 47.801556,263.508057 45.135357,261.787384 
	C42.557060,260.123444 40.628914,261.288208 39.508297,263.685822 
	C38.986996,264.801178 39.241100,266.278931 39.143124,268.448853 
M31.767632,305.967865 
	C30.394714,306.071411 28.753904,305.730225 27.700735,306.364594 
	C24.905329,308.048401 25.203648,317.675659 28.025461,319.334320 
	C30.903160,321.025848 33.360462,319.607422 33.599056,316.862213 
	C33.897484,313.428558 32.876118,309.880157 31.767632,305.967865 
M13.935706,316.120850 
	C15.397449,317.727417 16.859190,319.334015 18.320934,320.940582 
	C19.508524,319.196869 21.206318,317.594879 21.741079,315.669830 
	C22.282366,313.721252 22.145962,311.267639 21.408949,309.386963 
	C20.876617,308.028564 18.843678,306.402802 17.539551,306.452698 
	C16.333822,306.498810 14.722382,308.430389 14.175556,309.868500 
	C13.569515,311.462341 13.968227,313.438171 13.935706,316.120850 
M21.585997,267.080170 
	C19.938690,267.050262 16.860003,266.898834 16.850742,267.007935 
	C16.504339,271.089172 16.331030,275.198883 16.496981,279.290070 
	C16.515095,279.736664 18.905634,280.671478 19.842403,280.350037 
	C21.044661,279.937469 22.688213,278.520752 22.738878,277.469086 
	C22.894972,274.228973 22.383478,270.956726 21.585997,267.080170 
M27.421297,274.718842 
	C29.170235,275.766449 30.919172,276.814056 32.668114,277.861664 
	C33.451839,276.247803 34.512981,274.703094 34.937389,272.999695 
	C35.323421,271.450348 35.424114,269.584503 34.905712,268.122223 
	C34.355164,266.569275 32.969604,264.258881 31.873255,264.216156 
	C30.462786,264.161285 28.250391,265.746552 27.697313,267.144928 
	C26.901466,269.157135 27.289164,271.637451 27.421297,274.718842 
M58.107407,311.257324 
	C58.103916,309.610260 58.557861,307.774811 57.977409,306.365356 
	C57.301105,304.723145 55.720055,303.453552 54.531616,302.022247 
	C53.330761,303.410828 51.669598,304.625214 51.059616,306.237335 
	C50.459778,307.822601 50.496681,309.956238 51.044186,311.583435 
	C51.613079,313.274170 53.128345,314.646515 54.229763,316.158081 
	C55.517578,314.824310 56.805393,313.490509 58.107407,311.257324 
M44.925816,306.137543 
	C41.973946,303.329559 38.987743,303.513062 38.309715,306.818420 
	C37.756516,309.515289 37.774426,312.510529 38.382042,315.181732 
	C38.653641,316.375732 40.921452,317.613525 42.420288,317.815643 
	C43.144627,317.913300 44.740974,315.758270 44.962849,314.456299 
	C45.375008,312.037750 45.068909,309.496796 44.925816,306.137543 
z"/>
<path fill="#02609C" opacity="1.000000" stroke="none" 
	d="
M296.634644,17.823975 
	C296.833313,16.544149 297.031952,15.264327 297.310638,13.468775 
	C307.408752,17.781389 317.264252,21.708263 326.802704,26.294462 
	C328.785889,27.247986 330.609711,30.578573 330.761383,32.926453 
	C331.296906,41.215389 331.215851,49.555756 331.072540,57.871517 
	C331.011230,61.429379 332.443939,63.432022 335.597473,64.726189 
	C350.362335,70.785454 350.351593,70.811607 350.351593,86.443031 
	C350.351593,88.109192 350.344940,89.775391 350.352631,91.441513 
	C350.417297,105.442497 349.107849,101.669167 360.935394,107.061371 
	C368.742462,110.620621 368.675507,110.396210 368.880188,119.221527 
	C369.670441,153.294647 370.534882,187.366226 371.466736,221.435791 
	C371.830170,234.722931 371.655853,248.096130 373.205841,261.255890 
	C374.354858,271.011292 377.776001,280.519226 380.527893,290.038269 
	C380.843323,291.129364 383.306427,292.057648 384.876282,292.257965 
	C402.820465,294.547699 420.786194,296.668152 438.742981,298.859833 
	C470.699127,302.760162 502.653137,306.678101 534.607910,310.589478 
	C540.861084,311.354858 547.099060,312.306488 553.372925,312.815430 
	C556.604736,313.077606 557.689819,314.691498 557.942993,317.533508 
	C559.297668,332.740448 560.646423,347.948029 562.060303,363.149536 
	C562.583008,368.769318 563.186218,374.385223 563.926086,379.979950 
	C564.410095,383.640015 564.072021,385.928070 559.378479,386.192902 
	C539.496521,387.314758 519.629150,388.710815 499.764618,390.122131 
	C485.705139,391.121063 471.666473,392.417603 457.604767,393.380219 
	C436.393738,394.832245 415.166290,396.043762 393.953857,397.476196 
	C366.961975,399.298889 339.978088,401.240082 312.548340,402.570404 
	C311.136475,382.118805 310.023773,362.232666 309.231445,342.333801 
	C308.067963,313.114075 307.152924,283.884521 306.093750,254.660553 
	C305.499847,238.273712 304.813721,221.890244 304.196320,205.504227 
	C303.458160,185.913010 302.766754,166.320023 302.021881,146.729065 
	C301.435028,131.294464 300.746429,115.863617 300.195496,100.427803 
	C299.430817,79.004128 298.809845,57.575214 298.001190,36.153309 
	C297.770203,30.035057 297.102264,23.933298 296.634644,17.823975 
M337.547577,86.995148 
	C335.523071,86.012962 333.567535,84.671997 331.433105,84.261703 
	C330.770966,84.134422 328.599731,86.898232 328.888336,87.707954 
	C329.779327,90.207901 331.313416,92.586227 333.065521,94.605980 
	C333.589691,95.210220 336.654694,94.821762 336.829376,94.304787 
	C337.528076,92.237122 337.547516,89.939934 337.547577,86.995148 
z"/>
<path fill="#02609C" opacity="1.000000" stroke="none" 
	d="
M174.580841,395.935669 
	C174.142395,392.067993 174.071304,388.291565 174.093979,384.515747 
	C174.310562,348.455139 174.569946,312.394745 174.721222,276.333862 
	C174.733688,273.362000 175.311020,272.137146 178.700577,271.661865 
	C198.224289,268.924377 217.686600,265.752106 237.190643,262.868683 
	C240.876297,262.323853 242.494156,260.686310 242.124207,256.944672 
	C241.929321,254.973663 242.079971,252.968521 242.407410,250.407471 
	C243.495880,249.878769 244.251572,249.921371 245.012695,250.431061 
	C245.018127,254.840378 245.018127,258.782593 245.018127,263.394806 
	C261.680542,261.449036 277.398499,259.613525 294.079803,257.665527 
	C294.079803,265.397705 293.927795,272.348511 294.105194,279.290955 
	C295.047638,316.173737 296.051697,353.054993 297.098358,389.934998 
	C297.215637,394.066772 297.736572,398.187073 298.070343,402.312744 
	C283.015015,401.632385 267.958710,400.973663 252.904678,400.265686 
	C237.679703,399.549622 222.454117,398.838898 207.234314,398.023010 
	C196.482010,397.446594 185.738922,396.698608 174.580841,395.935669 
M268.855103,292.883453 
	C268.855103,296.821533 268.855103,300.759644 268.855103,305.834656 
	C273.100372,304.815674 276.802277,304.570435 279.846191,303.027252 
	C283.343964,301.253998 286.476715,298.558350 289.336670,295.813843 
	C290.791504,294.417755 292.053375,292.055725 292.105286,290.095947 
	C292.321045,281.951385 291.871033,273.790558 292.020996,265.642273 
	C292.092560,261.753387 290.499634,260.555267 286.952118,260.982239 
	C272.133759,262.765747 257.301392,264.443634 242.512680,266.444763 
	C241.206451,266.621521 239.343109,268.761749 239.181259,270.157318 
	C238.723999,274.100403 239.174362,278.138702 238.967407,282.123901 
	C238.791321,285.514771 240.084671,286.777466 243.496750,287.062897 
	C250.765823,287.670990 258.010590,288.637939 265.231506,289.689758 
	C266.518707,289.877289 267.642914,291.183380 268.855103,292.883453 
z"/>
<path fill="#A2BDD6" opacity="1.000000" stroke="none" 
	d="
M298.394165,402.552307 
	C297.736572,398.187073 297.215637,394.066772 297.098358,389.934998 
	C296.051697,353.054993 295.047638,316.173737 294.105194,279.290955 
	C293.927795,272.348511 294.079803,265.397705 294.079803,257.665527 
	C277.398499,259.613525 261.680542,261.449036 245.018127,263.394806 
	C245.018127,258.782593 245.018127,254.840378 245.303284,250.164734 
	C259.459747,247.295715 273.319031,245.075897 287.211945,243.091690 
	C290.190674,242.666260 291.167206,241.372757 291.114868,238.560257 
	C290.975830,231.092377 290.972595,223.621964 291.198639,215.987152 
	C291.897888,215.175827 292.313812,214.529907 293.322784,212.963104 
	C280.231476,215.831375 268.132019,218.482330 255.627533,221.098114 
	C251.920349,221.586411 248.618164,222.109894 245.302155,222.191467 
	C245.194427,217.444275 245.100510,213.138992 245.006592,208.833679 
	C257.925293,205.988602 270.811218,202.978989 283.781921,200.394943 
	C287.872833,199.579941 289.148834,197.900848 289.108032,193.765045 
	C288.906250,173.302460 288.746582,152.832291 289.088837,132.373444 
	C289.460785,110.137802 290.322937,87.908852 291.125763,65.682564 
	C291.556396,53.760193 292.113159,41.834263 293.029999,29.942091 
	C293.340057,25.920675 294.931854,21.998077 296.286255,17.927147 
	C297.102264,23.933298 297.770203,30.035057 298.001190,36.153309 
	C298.809845,57.575214 299.430817,79.004128 300.195496,100.427803 
	C300.746429,115.863617 301.435028,131.294464 302.021881,146.729065 
	C302.766754,166.320023 303.458160,185.913010 304.196320,205.504227 
	C304.813721,221.890244 305.499847,238.273712 306.093750,254.660553 
	C307.152924,283.884521 308.067963,313.114075 309.231445,342.333801 
	C310.023773,362.232666 311.136475,382.118805 312.093231,402.473694 
	C307.626343,402.888489 303.172180,402.840179 298.394165,402.552307 
z"/>
<path fill="#04609D" opacity="1.000000" stroke="none" 
	d="
M114.893234,392.427185 
	C114.783760,381.654968 114.941193,371.186737 115.152962,360.719666 
	C115.337692,351.589081 115.645866,342.460571 115.765549,333.329376 
	C115.802528,330.507812 116.669220,329.200867 119.742149,328.948120 
	C133.457245,327.820312 147.150894,326.433563 160.857254,325.195312 
	C162.291779,325.065643 163.759033,325.298248 164.793564,325.344208 
	C164.793564,348.743469 164.793564,371.789398 164.748032,395.256378 
	C148.196259,394.695496 131.690002,393.713593 114.893234,392.427185 
z"/>
<path fill="#07629E" opacity="1.000000" stroke="none" 
	d="
M29.324070,388.187195 
	C29.074860,386.713287 29.237200,385.392334 29.332623,384.066559 
	C29.967926,375.239838 29.963274,375.239471 39.052601,375.239471 
	C47.151936,375.239441 55.251270,375.239471 63.615879,375.239471 
	C63.615879,379.973724 63.615879,384.407318 63.673019,389.287354 
	C52.388329,389.268555 41.046497,388.803223 29.324070,388.187195 
z"/>
<path fill="#0E66A0" opacity="1.000000" stroke="none" 
	d="
M244.630676,208.798706 
	C245.100510,213.138992 245.194427,217.444275 245.216858,222.576035 
	C245.093323,223.921890 245.041260,224.441269 244.688354,225.092407 
	C243.323685,225.387665 242.259842,225.551178 241.196014,225.714691 
	C241.167007,220.552597 241.138016,215.390488 241.210907,209.796600 
	C242.293457,209.164429 243.274094,208.964066 244.630676,208.798706 
z"/>
<path fill="#FDFEFE" opacity="1.000000" stroke="none" 
	d="
M240.912903,225.975525 
	C242.259842,225.551178 243.323685,225.387665 245.093277,225.120956 
	C249.224838,224.293304 252.650635,223.568848 256.523163,222.805573 
	C268.285034,220.562012 279.600189,218.357285 290.915344,216.152557 
	C290.972595,223.621964 290.975830,231.092377 291.114868,238.560257 
	C291.167206,241.372757 290.190674,242.666260 287.211945,243.091690 
	C273.319031,245.075897 259.459747,247.295715 245.297852,249.697617 
	C244.251572,249.921371 243.495880,249.878769 242.377991,249.954224 
	C241.346222,248.630249 240.215714,247.227219 240.089691,245.739151 
	C239.629181,240.301392 239.425369,234.836777 239.320419,229.378525 
	C239.300461,228.339920 240.170425,227.284195 240.912903,225.975525 
z"/>
<path fill="#FAFBFD" opacity="1.000000" stroke="none" 
	d="
M185.335037,251.123749 
	C180.543716,253.865875 176.614120,252.117035 176.205383,247.176041 
	C175.876755,243.203247 175.626312,239.091431 176.331223,235.221649 
	C176.683716,233.286591 179.092926,230.603180 180.857559,230.363785 
	C182.628098,230.123581 186.374008,232.418243 186.442749,233.747375 
	C186.735916,239.415604 185.988083,245.137680 185.335037,251.123749 
z"/>
<path fill="#FBFCFD" opacity="1.000000" stroke="none" 
	d="
M167.020889,243.100037 
	C167.015564,245.893311 167.651520,248.484406 166.829727,250.473114 
	C165.955933,252.587662 163.938690,255.106750 161.966629,255.587875 
	C160.609314,255.918991 157.250656,253.310150 156.931442,251.612076 
	C156.088928,247.130325 155.880432,242.351120 156.535385,237.852798 
	C156.802139,236.020737 160.276520,233.071320 161.714462,233.373749 
	C163.757721,233.803513 165.490997,236.615524 166.903732,238.714569 
	C167.520889,239.631561 167.016113,241.303635 167.020889,243.100037 
z"/>
<path fill="#FBFCFD" opacity="1.000000" stroke="none" 
	d="
M129.987549,304.471161 
	C129.287933,308.555267 126.319756,309.642090 123.665390,308.647430 
	C121.718231,307.917816 120.006744,305.275787 119.217293,303.111420 
	C118.470871,301.065002 118.927597,298.519806 119.099998,296.212250 
	C119.357056,292.771729 120.985512,290.736969 124.816521,290.876892 
	C128.631958,291.016205 130.126282,292.955536 130.017136,296.579132 
	C129.942337,299.062836 129.999893,301.550507 129.987549,304.471161 
z"/>
<path fill="#FBFCFD" opacity="1.000000" stroke="none" 
	d="
M143.640839,289.142029 
	C147.424164,292.177704 148.755676,302.833405 145.435913,305.322571 
	C143.827347,306.528656 140.030930,306.413910 138.162170,305.310333 
	C135.186386,303.552979 134.906601,293.465912 137.544388,291.103210 
	C138.937637,289.855225 141.309174,289.699432 143.640839,289.142029 
z"/>
<path fill="#F7F9FB" opacity="1.000000" stroke="none" 
	d="
M126.840179,241.276276 
	C130.655060,244.001083 132.504211,254.510361 130.157730,258.046051 
	C128.604233,260.386871 124.668472,260.847107 122.711510,258.916779 
	C118.834320,255.092361 121.374557,243.115448 126.840179,241.276276 
z"/>
<path fill="#F9FBFC" opacity="1.000000" stroke="none" 
	d="
M139.592041,239.876343 
	C143.706711,237.584686 147.003250,238.693954 147.570068,242.718353 
	C148.046356,246.099884 147.963943,249.718216 147.243912,253.039871 
	C146.910202,254.579330 144.468094,256.681091 142.988846,256.675537 
	C141.406525,256.669556 138.569824,254.560883 138.486877,253.232269 
	C138.216782,248.905701 138.954239,244.516266 139.592041,239.876343 
z"/>
<path fill="#FAFBFD" opacity="1.000000" stroke="none" 
	d="
M102.045837,260.480194 
	C102.037766,257.050049 101.570618,253.958984 102.205963,251.114136 
	C102.615555,249.280106 104.642860,247.807343 105.945160,246.172653 
	C107.600899,247.723038 110.140259,249.008636 110.703049,250.886566 
	C111.524841,253.628830 111.381119,256.892792 110.775383,259.749115 
	C110.368904,261.665863 108.450150,263.261902 107.208038,265.001434 
	C105.490074,263.642181 103.772110,262.282898 102.045837,260.480194 
z"/>
<path fill="#FBFDFD" opacity="1.000000" stroke="none" 
	d="
M84.811584,251.728394 
	C90.972015,250.375763 92.846542,251.746826 92.893318,257.481384 
	C92.913132,259.910614 93.046890,262.676056 91.976723,264.670441 
	C91.119278,266.268372 88.476830,267.811707 86.710411,267.722321 
	C85.384705,267.655243 83.182701,264.983368 83.140671,263.423492 
	C83.038406,259.628021 83.966209,255.804794 84.811584,251.728394 
z"/>
<path fill="#FDFEFE" opacity="1.000000" stroke="none" 
	d="
M101.584633,296.001434 
	C106.724213,292.569458 109.848442,294.021393 110.042076,299.522614 
	C110.129501,302.006287 110.034660,304.495850 110.055748,306.982483 
	C110.084641,310.388123 107.882431,312.164307 105.058029,311.657867 
	C103.465584,311.372375 101.360855,308.913147 101.114845,307.199432 
	C100.607216,303.663208 101.190262,299.970398 101.584633,296.001434 
z"/>
<path fill="#FAFBFD" opacity="1.000000" stroke="none" 
	d="
M81.899071,299.270935 
	C83.653641,298.077271 85.503487,296.318695 86.789452,296.663452 
	C88.324623,297.074982 90.144226,299.135437 90.464981,300.754211 
	C90.992882,303.418365 90.894524,306.448212 90.104889,309.031952 
	C89.697777,310.364044 87.264183,311.758942 85.685982,311.832550 
	C84.450485,311.890167 82.247589,310.125031 82.009575,308.877014 
	C81.439713,305.888977 81.774849,302.728333 81.899071,299.270935 
z"/>
<path fill="#FAFBFD" opacity="1.000000" stroke="none" 
	d="
M52.497341,271.899170 
	C52.139397,268.108398 51.727283,264.635895 52.032234,261.227509 
	C52.157116,259.831726 53.683147,257.683014 54.840370,257.490387 
	C56.152351,257.271973 58.886158,258.685272 59.046169,259.698151 
	C59.621635,263.340729 60.080135,267.289703 59.211185,270.781555 
	C58.514336,273.581848 55.707497,275.308807 52.497341,271.899170 
z"/>
<path fill="#FAFBFD" opacity="1.000000" stroke="none" 
	d="
M64.262154,301.859863 
	C66.056305,300.868713 67.918373,299.504364 69.285904,299.890686 
	C70.473434,300.226135 71.544838,302.450867 71.867111,304.006470 
	C72.294281,306.068451 72.475311,308.490845 71.766586,310.386078 
	C71.138428,312.065887 69.149315,313.236755 67.760986,314.632294 
	C66.499557,313.152588 64.538719,311.837952 64.141342,310.154327 
	C63.551613,307.655701 64.069099,304.895721 64.262154,301.859863 
z"/>
<path fill="#FBFCFD" opacity="1.000000" stroke="none" 
	d="
M66.037201,264.683533 
	C66.041977,262.580444 65.530624,260.663269 66.186226,259.312469 
	C66.991760,257.652771 68.771606,256.465942 70.130295,255.074722 
	C71.427979,256.526489 73.130501,257.794922 73.896835,259.487274 
	C74.523857,260.871948 74.492935,262.940369 73.930527,264.385223 
	C73.135094,266.428711 71.900665,269.357727 70.282997,269.794647 
	C67.334183,270.591187 66.041611,268.019592 66.037201,264.683533 
z"/>
<path fill="#FBFCFD" opacity="1.000000" stroke="none" 
	d="
M39.143417,268.020630 
	C39.241100,266.278931 38.986996,264.801178 39.508297,263.685822 
	C40.628914,261.288208 42.557060,260.123444 45.135357,261.787384 
	C47.801556,263.508057 48.072609,273.482269 45.224979,274.880402 
	C43.943832,275.509399 41.158432,274.751312 40.081757,273.633850 
	C39.067558,272.581238 39.401997,270.229218 39.143417,268.020630 
z"/>
<path fill="#F7F9FB" opacity="1.000000" stroke="none" 
	d="
M32.096062,306.174561 
	C32.876118,309.880157 33.897484,313.428558 33.599056,316.862213 
	C33.360462,319.607422 30.903160,321.025848 28.025461,319.334320 
	C25.203648,317.675659 24.905329,308.048401 27.700735,306.364594 
	C28.753904,305.730225 30.394714,306.071411 32.096062,306.174561 
z"/>
<path fill="#F7F9FB" opacity="1.000000" stroke="none" 
	d="
M13.932560,315.684265 
	C13.968227,313.438171 13.569515,311.462341 14.175556,309.868500 
	C14.722382,308.430389 16.333822,306.498810 17.539551,306.452698 
	C18.843678,306.402802 20.876617,308.028564 21.408949,309.386963 
	C22.145962,311.267639 22.282366,313.721252 21.741079,315.669830 
	C21.206318,317.594879 19.508524,319.196869 18.320934,320.940582 
	C16.859190,319.334015 15.397449,317.727417 13.932560,315.684265 
z"/>
<path fill="#F9FBFC" opacity="1.000000" stroke="none" 
	d="
M21.858677,267.388550 
	C22.383478,270.956726 22.894972,274.228973 22.738878,277.469086 
	C22.688213,278.520752 21.044661,279.937469 19.842403,280.350037 
	C18.905634,280.671478 16.515095,279.736664 16.496981,279.290070 
	C16.331030,275.198883 16.504339,271.089172 16.850742,267.007935 
	C16.860003,266.898834 19.938690,267.050262 21.858677,267.388550 
z"/>
<path fill="#FAFBFD" opacity="1.000000" stroke="none" 
	d="
M27.296505,274.318420 
	C27.289164,271.637451 26.901466,269.157135 27.697313,267.144928 
	C28.250391,265.746552 30.462786,264.161285 31.873255,264.216156 
	C32.969604,264.258881 34.355164,266.569275 34.905712,268.122223 
	C35.424114,269.584503 35.323421,271.450348 34.937389,272.999695 
	C34.512981,274.703094 33.451839,276.247803 32.668114,277.861664 
	C30.919172,276.814056 29.170235,275.766449 27.296505,274.318420 
z"/>
<path fill="#FBFCFD" opacity="1.000000" stroke="none" 
	d="
M58.100311,311.707031 
	C56.805393,313.490509 55.517578,314.824310 54.229759,316.158081 
	C53.128345,314.646515 51.613079,313.274170 51.044186,311.583435 
	C50.496681,309.956238 50.459778,307.822601 51.059616,306.237335 
	C51.669598,304.625214 53.330761,303.410828 54.531616,302.022247 
	C55.720055,303.453552 57.301105,304.723145 57.977409,306.365356 
	C58.557861,307.774811 58.103916,309.610260 58.100311,311.707031 
z"/>
<path fill="#FDFEFE" opacity="1.000000" stroke="none" 
	d="
M44.993835,306.572174 
	C45.068909,309.496796 45.375008,312.037750 44.962849,314.456299 
	C44.740974,315.758270 43.144627,317.913300 42.420288,317.815643 
	C40.921452,317.613525 38.653641,316.375732 38.382042,315.181732 
	C37.774426,312.510529 37.756516,309.515289 38.309715,306.818420 
	C38.987743,303.513062 41.973946,303.329559 44.993835,306.572174 
z"/>
<path fill="#F1F6F9" opacity="1.000000" stroke="none" 
	d="
M337.682922,87.361404 
	C337.547516,89.939934 337.528076,92.237122 336.829376,94.304787 
	C336.654694,94.821762 333.589691,95.210220 333.065521,94.605980 
	C331.313416,92.586227 329.779327,90.207901 328.888336,87.707954 
	C328.599731,86.898232 330.770966,84.134422 331.433105,84.261703 
	C333.567535,84.671997 335.523071,86.012962 337.682922,87.361404 
z"/>
<path fill="#FBFDFD" opacity="1.000000" stroke="none" 
	d="
M268.848755,292.428223 
	C267.642914,291.183380 266.518707,289.877289 265.231506,289.689758 
	C258.010590,288.637939 250.765823,287.670990 243.496750,287.062897 
	C240.084671,286.777466 238.791321,285.514771 238.967407,282.123901 
	C239.174362,278.138702 238.723999,274.100403 239.181259,270.157318 
	C239.343109,268.761749 241.206451,266.621521 242.512680,266.444763 
	C257.301392,264.443634 272.133759,262.765747 286.952118,260.982239 
	C290.499634,260.555267 292.092560,261.753387 292.020996,265.642273 
	C291.871033,273.790558 292.321045,281.951385 292.105286,290.095947 
	C292.053375,292.055725 290.791504,294.417755 289.336670,295.813843 
	C286.476715,298.558350 283.343964,301.253998 279.846191,303.027252 
	C276.802277,304.570435 273.100372,304.815674 268.855103,305.834656 
	C268.855103,300.759644 268.855103,296.821533 268.848755,292.428223 
z"/>
<path fill="#2975AA" opacity="1.000000" stroke="none" 
	d="
M291.198608,215.987152 
	C279.600189,218.357285 268.285034,220.562012 256.512573,222.377548 
	C256.047668,221.703339 256.040100,221.418304 256.032532,221.133301 
	C268.132019,218.482330 280.231476,215.831375 293.322784,212.963104 
	C292.313812,214.529907 291.897888,215.175827 291.198608,215.987152 
z"/>
<path fill="#3B81B1" opacity="1.000000" stroke="none" 
	d="
M255.627533,221.098114 
	C256.040100,221.418304 256.047668,221.703339 256.065857,222.416382 
	C252.650635,223.568848 249.224838,224.293304 245.394119,224.989212 
	C245.041260,224.441269 245.093323,223.921890 245.230682,223.017944 
	C248.618164,222.109894 251.920349,221.586411 255.627533,221.098114 
z"/>
</svg>